<svg width="25" height="25" viewBox="0 0 25 25" fill="none" xmlns="http://www.w3.org/2000/svg">
<path d="M13.7852 6.65375C13.4388 6.14436 13.1332 5.67571 12.8479 5.24781C12.8071 5.18669 12.746 5.12556 12.6849 5.08481C12.4404 4.9218 12.1144 5.0033 11.9514 5.24781C11.6865 5.67571 11.3808 6.12398 11.0141 6.65375C9.40436 9.01736 7 12.5832 7 14.6208C7 16.1082 7.61128 17.453 8.58932 18.4311C9.56737 19.3887 10.9122 20 12.3996 20C13.8871 20 15.2319 19.3887 16.2099 18.4107C17.188 17.4326 17.7993 16.0878 17.7993 14.6004C17.7993 12.5628 15.3949 9.01736 13.7852 6.65375Z" stroke="#333333" stroke-miterlimit="10" stroke-linecap="round" stroke-linejoin="round"/>
<path d="M13.7852 6.65375C13.4388 6.14436 13.1332 5.67571 12.8479 5.24781C12.8071 5.18669 12.746 5.12556 12.6849 5.08481C12.4404 4.9218 12.1144 5.0033 11.9514 5.24781C11.6865 5.67571 11.3808 6.12398 11.0141 6.65375C9.40436 9.01736 7 12.5832 7 14.6208C7 16.1082 7.61128 17.453 8.58932 18.4311C9.56737 19.3887 10.9122 20 12.3996 20C13.8871 20 15.2319 19.3887 16.2099 18.4107C17.188 17.4326 17.7993 16.0878 17.7993 14.6004C17.7993 12.5628 15.3949 9.01736 13.7852 6.65375Z" stroke="#333333" stroke-miterlimit="10" stroke-linecap="round" stroke-linejoin="round"/>
<path d="M14.2129 17.7998C14.763 17.4942 15.2113 17.0459 15.517 16.5365C15.843 16.0271 16.0264 15.4158 16.0467 14.7842" stroke="#333333" stroke-miterlimit="10" stroke-linecap="round" stroke-linejoin="round"/>
</svg>
