<svg width="25" height="25" viewBox="0 0 25 25" fill="none" xmlns="http://www.w3.org/2000/svg">
<path d="M8.73432 9.66733H7.08832C6.24966 9.66733 5.53832 10.2947 5.43499 11.1273L5.00766 14.5433C4.97232 14.828 5.06032 15.114 5.25032 15.3293C5.42566 15.528 5.67166 15.648 5.93432 15.6653L6.24566 20.0247C6.25832 20.1993 6.40299 20.334 6.57832 20.334H9.24499M18.0677 9.66667C18.9063 9.66667 19.617 10.2947 19.721 11.1267L20.1483 14.5433C20.1843 14.828 20.0957 15.1133 19.9063 15.3287C19.731 15.5273 19.485 15.6473 19.2223 15.6647L18.911 20.024C18.8983 20.198 18.753 20.3333 18.5783 20.3333H15.9117M7.91166 8C8.83232 8 9.57832 7.254 9.57832 6.33333C9.57832 5.41333 8.83232 4.66667 7.91166 4.66667C6.99166 4.66667 6.24499 5.41333 6.24499 6.33333C6.24499 7.254 6.99166 8 7.91166 8ZM17.245 8C18.1657 8 18.9117 7.254 18.9117 6.33333C18.9117 5.41333 18.1657 4.66667 17.245 4.66667C16.3243 4.66667 15.5783 5.41267 15.5783 6.33333C15.5783 7.254 16.325 8 17.245 8ZM12.521 7.33333C13.4417 7.33333 14.1877 6.58733 14.1877 5.66667C14.1877 4.746 13.4417 4 12.521 4C11.6003 4 10.8543 4.746 10.8543 5.66667C10.8543 6.58733 11.601 7.33333 12.521 7.33333ZM15.5137 14.4913L15.0717 10.6187C14.9663 9.696 14.2357 9 13.3723 9H11.6703C10.807 9 10.0757 9.696 9.97099 10.6187L9.52899 14.4907C9.49166 14.8147 9.59166 15.136 9.80299 15.3733C9.98499 15.5773 10.2263 15.6953 10.4877 15.71L10.8557 20.6913C10.8683 20.8647 11.0137 21 11.1883 21H13.855C14.0297 21 14.1743 20.8653 14.1877 20.6913L14.5557 15.71C14.8177 15.6953 15.0583 15.5767 15.2403 15.3733C15.451 15.1373 15.5503 14.8147 15.5137 14.4913Z" stroke="black" stroke-linecap="round" stroke-linejoin="round"/>
</svg>
