<svg width="25" height="25" viewBox="0 0 25 25" fill="none" xmlns="http://www.w3.org/2000/svg">
<path d="M5.90167 5.90167C6.15836 5.64498 6.50635 5.50054 6.86935 5.5H9.73202C10.095 5.50054 10.443 5.64498 10.6997 5.90167C10.9564 6.15835 11.1008 6.50632 11.1014 6.86931C11.1014 6.86943 11.1014 6.86954 11.1014 6.86965V9.73172C11.1014 9.73183 11.1014 9.73195 11.1014 9.73206C11.1008 10.0951 10.9564 10.443 10.6997 10.6997C10.443 10.9564 10.0951 11.1008 9.73206 11.1014C9.73195 11.1014 9.73183 11.1014 9.73172 11.1014H6.86965C6.86954 11.1014 6.86943 11.1014 6.86931 11.1014C6.50632 11.1008 6.15835 10.9564 5.90167 10.6997C5.64498 10.443 5.50054 10.095 5.5 9.73202V6.86935C5.50054 6.50635 5.64498 6.15836 5.90167 5.90167ZM5.90167 13.4124C6.15843 13.1556 6.50654 13.0112 6.86965 13.0107H9.73172C10.0948 13.0112 10.4429 13.1556 10.6997 13.4124C10.9564 13.6691 11.1008 14.0171 11.1014 14.38C11.1014 14.3802 11.1014 14.3803 11.1014 14.3804V17.2425C11.1014 17.2426 11.1014 17.2427 11.1014 17.2428C11.1008 17.6058 10.9564 17.9538 10.6997 18.2104C10.4429 18.4672 10.0948 18.6116 9.73172 18.6121H6.86965C6.50654 18.6116 6.15843 18.4672 5.90167 18.2104C5.64498 17.9537 5.50054 17.6058 5.5 17.2428V14.3801C5.50054 14.0171 5.64498 13.6691 5.90167 13.4124ZM13.4123 13.4123C13.6691 13.1555 14.0172 13.0111 14.3803 13.0107H17.2418C17.605 13.0112 17.9534 13.1557 18.2101 13.4124C18.4669 13.6692 18.6113 14.0173 18.6118 14.3804V17.2425C18.6113 17.6056 18.4669 17.9537 18.2101 18.2104C17.9533 18.4672 17.6052 18.6116 17.2421 18.6121H14.3803C14.0172 18.6117 13.6691 18.4673 13.4123 18.2105C13.1556 17.9538 13.0111 17.6057 13.0107 17.2425V14.3803C13.0111 14.0172 13.1556 13.6691 13.4123 13.4123ZM13.4121 5.90167C13.6688 5.64498 14.0167 5.50054 14.3797 5.5H17.2424C17.6054 5.50054 17.9534 5.64498 18.2101 5.90167C18.4669 6.15843 18.6113 6.50654 18.6118 6.86965V9.73172C18.6113 10.0948 18.4669 10.4429 18.2101 10.6997C17.9534 10.9564 17.6054 11.1008 17.2425 11.1014C17.2423 11.1014 17.2422 11.1014 17.2421 11.1014H14.38C14.3799 11.1014 14.3798 11.1014 14.3797 11.1014C14.0167 11.1008 13.6687 10.9564 13.4121 10.6997C13.1553 10.4429 13.0109 10.0948 13.0104 9.73172V6.86965C13.0109 6.50654 13.1553 6.15843 13.4121 5.90167L13.0585 5.54812L13.4121 5.90167Z" stroke="#333333" stroke-miterlimit="10" stroke-linecap="round" stroke-linejoin="round"/>
</svg>
