<svg width="25" height="25" viewBox="0 0 25 25" fill="none" xmlns="http://www.w3.org/2000/svg">
<path d="M8.2359 20.8259L8.33521 21.2231C8.40969 21.4962 8.26072 21.7445 7.98763 21.819L5.80286 22.3652L3.91602 14.6688L6.07596 14.1227C6.34905 14.0482 6.59732 14.1971 6.6718 14.4702L6.77111 14.8675M8.2359 20.8259L6.77111 14.8675M8.2359 20.8259L8.26072 20.8011L9.05519 20.0066H14.1695C15.0881 20.0066 15.9819 19.6342 16.6274 18.9887L21.1707 14.4702C21.5183 14.1227 21.6921 13.6509 21.6424 13.1792C21.5679 12.2606 20.7735 11.5903 19.8549 11.6648C19.4577 11.6896 19.0853 11.8634 18.8122 12.1365L16.3046 14.644M6.77111 14.8675L6.79594 14.8426C7.5904 14.073 8.63313 13.6261 9.75034 13.6261H14.7902C15.4605 13.6261 16.0564 14.0233 16.3046 14.644M16.3046 14.644L14.7902 16.2578H13.0002" stroke="#333333" stroke-miterlimit="10" stroke-linecap="round" stroke-linejoin="round"/>
<path d="M12 14V11.8222M12 8V11.8222M12 11.8222L13.178 11.2M13.178 11.2C13.7671 11.7185 15.2985 12.32 16.7122 10.5778C16.8103 10.3704 17.1834 9.95556 17.8902 9.95556C18.7737 9.95556 14.0616 8.08889 13.178 11.2Z" stroke="#333333"/>
<path d="M12 12L11.0183 11.4862M11.0183 11.4862C10.5275 11.9144 9.25124 12.411 8.0732 10.9724C7.99139 10.8011 7.68052 10.4586 7.0915 10.4586C6.35523 10.4586 10.282 8.9172 11.0183 11.4862Z" stroke="#333333"/>
<circle cx="12" cy="5" r="3.5" stroke="#333333"/>
<path d="M11.3074 4C11.7934 4 12.1901 4.37617 12.1901 4.83699C12.1901 5.29779 11.7934 5.67396 11.3074 5.67396H11L12.2 7" stroke="#333333" stroke-width="0.8" stroke-miterlimit="10" stroke-linecap="round" stroke-linejoin="round"/>
<path d="M11 4H12.8" stroke="#333333" stroke-width="0.8" stroke-miterlimit="10" stroke-linecap="round" stroke-linejoin="round"/>
<path d="M11 4.6001H12.8" stroke="#333333" stroke-width="0.8" stroke-miterlimit="10" stroke-linecap="round" stroke-linejoin="round"/>
</svg>
