<svg width="25" height="25" viewBox="0 0 25 25" fill="none" xmlns="http://www.w3.org/2000/svg">
<path d="M6 10.55V7.95C6 7.43283 6.20545 6.93684 6.57114 6.57114C6.93684 6.20545 7.43283 6 7.95 6H10.55M14.45 6H17.05C17.5672 6 18.0632 6.20545 18.4289 6.57114C18.7946 6.93684 19 7.43283 19 7.95V10.55M14.45 19H17.05C17.5672 19 18.0632 18.7946 18.4289 18.4289C18.7946 18.0632 19 17.5672 19 17.05V14.45M6 14.45V17.05C6 17.5672 6.20545 18.0632 6.57114 18.4289C6.93684 18.7946 7.43283 19 7.95 19H10.55M9.9 8.6H15.1C15.4448 8.6 15.7754 8.73696 16.0192 8.98076C16.263 9.22456 16.4 9.55522 16.4 9.9V15.1C16.4 15.4448 16.263 15.7754 16.0192 16.0192C15.7754 16.263 15.4448 16.4 15.1 16.4H9.9C9.55522 16.4 9.22456 16.263 8.98076 16.0192C8.73696 15.7754 8.6 15.4448 8.6 15.1V9.9C8.6 9.55522 8.73696 9.22456 8.98076 8.98076C9.22456 8.73696 9.55522 8.6 9.9 8.6Z" stroke="#333333" stroke-linecap="round" stroke-linejoin="round"/>
</svg>
