<svg width="25" height="25" viewBox="0 0 25 25" fill="none" xmlns="http://www.w3.org/2000/svg">
<path d="M8.31057 10.156C7.29733 10.1943 6.28043 10.1614 5.26597 10.1721C4.90031 10.1843 4.50244 10.1138 4.17218 10.313C3.82898 10.4997 3.64225 10.8947 3.64859 11.2774C3.65104 12.3429 3.64591 13.4086 3.65177 14.4736C4.27812 14.2925 4.95499 14.2297 5.58647 14.4274C6.53502 14.6925 7.30734 15.449 7.64297 16.3687C9.92916 16.3675 12.2158 16.3743 14.502 16.3656C14.4876 15.4541 14.8128 14.5497 15.3674 13.8319C16.0584 12.9358 17.1363 12.3395 18.2672 12.2601C18.8684 12.1815 19.4782 12.3011 20.0498 12.4866C20.2664 12.0634 20.4797 11.6394 20.6857 11.211C20.5217 10.7419 20.116 10.3386 20.1677 9.8138C20.1709 8.55378 20.1685 7.29352 20.169 6.03325C20.1802 5.71642 20.0154 5.41569 19.7677 5.22481C19.5448 5.0393 19.2448 5.00293 18.9651 5.00098C17.7056 5.00146 16.4453 5.00146 15.186 5.00098C14.9407 5.00146 14.6924 4.98926 14.4503 5.0393C14.1266 5.11106 13.8496 5.3515 13.7251 5.65832C13.1129 7.15975 12.5295 8.67339 11.91 10.1716M8.30496 6.04204C8.64913 6.0396 8.99355 6.03887 9.33772 6.04277C9.33968 7.41874 9.33577 8.79495 9.33894 10.1712C10.196 10.1743 11.0527 10.1724 11.91 10.1716M11.91 10.1716H18.0001" stroke="black" stroke-linecap="round" stroke-linejoin="round"/>
<path d="M20.5139 14.4103C19.9301 14.0631 19.2249 13.9332 18.5544 14.0322C17.6676 14.1599 16.8522 14.7096 16.4076 15.4888C16.0408 16.1124 15.9142 16.8727 16.0578 17.5813C16.2279 18.5137 16.8828 19.3378 17.743 19.7282C18.2893 20.0005 18.9179 20.0439 19.5151 19.9644C20.3259 19.8201 21.0679 19.3315 21.5144 18.6371C21.9178 18.0147 22.0874 17.2388 21.9565 16.506C21.8169 15.6404 21.2738 14.8478 20.5139 14.4103Z" stroke="black" stroke-linecap="round" stroke-linejoin="round"/>
<path d="M4.5419 16.0092C4.86561 15.9735 5.20111 16.041 5.47427 16.2219C5.8451 16.4551 6.08637 16.8744 6.11231 17.3106C6.13666 17.6958 5.99465 18.0896 5.72467 18.3662C5.4613 18.6393 5.08306 18.809 4.70071 18.7909C4.3222 18.8009 3.95111 18.6246 3.69436 18.3509C3.38414 18.026 3.25405 17.5455 3.34867 17.1076C3.46051 16.5365 3.96434 16.0743 4.5419 16.0092Z" stroke="black" stroke-linecap="round" stroke-linejoin="round"/>
</svg>
